<?xml version="1.0" encoding="utf-8"?>
<!-- Generator: Adobe Illustrator 21.1.0, SVG Export Plug-In . SVG Version: 6.00 Build 0)  -->
<svg version="1.1" id="Layer_1" xmlns="http://www.w3.org/2000/svg" xmlns:xlink="http://www.w3.org/1999/xlink" x="0px" y="0px"
	 viewBox="0 0 127 40" style="enable-background:new 0 0 127 40;" xml:space="preserve">
<style type="text/css">
	.st0{fill:#ED534F;}
</style>
<g>
	<g>
		<path class="st0" d="M37.8,4.6c-2.9-3.6-8-4-11.3-0.8c-0.3,0.3-0.6,0.7-0.8,1.1c-1,1.5-1.3,3-1.4,4.5c-0.1,1.7,0,3.3,0,5
			c0,2.6-0.3,5.3-1.3,7.8l0,0l0,0l0,0l-0.4,1.4l1.1-1l0,0l0,0l0,0c0.7-0.6,1.5-1.3,2.2-1.8c1.8-1.3,3.7-2.2,5.7-3
			c1.3-0.5,2.5-1,3.8-1.6C39.3,13.8,40.9,8.6,37.8,4.6z M34.1,10.9c-0.8,1.4-2.7,1.8-4,1c-1.3-0.8-1.7-2.7-0.7-4.1
			c0.8-1.4,2.5-1.7,4-0.7C34.6,7.8,34.9,9.6,34.1,10.9z"/>
		<path class="st0" d="M21.7,22.4L21.7,22.4L21.7,22.4c-1.9-1.9-3.2-4.2-4.2-6.7c-0.6-1.5-1.2-3.1-1.9-4.5c-0.7-1.4-1.6-2.6-3.1-3.6
			c-0.3-0.2-0.7-0.4-1.2-0.6c-4.2-1.6-8.9,0.8-10,5.3c-1.3,4.9,2.3,9.1,6.8,9.5c1.4,0.1,2.7,0.1,4.1,0c2.2-0.1,4.3,0,6.4,0.5
			c1,0.2,1.9,0.4,2.7,0.7l0,0l0,0l0,0l1.3,0.4L21.7,22.4z M11.2,15.7c-0.8,1.3-2.6,1.7-4,0.7c-1.3-0.8-1.7-2.6-0.8-3.9
			c1-1.4,2.6-1.8,4-0.8C11.6,12.6,12,14.4,11.2,15.7z"/>
		<path class="st0" d="M22,24c-0.4,0.4-1,0.8-1.5,1.3c-1.2,0.8-2.5,1.5-3.9,2c-0.8,0.3-1.8,0.6-2.5,1.2c-2.6,1.5-3.7,5.1-1.6,7.7
			c1.9,2.4,5.5,2.7,7.7,0.5c0.2-0.2,0.4-0.5,0.6-0.7c0.6-1,0.8-2,1-3.1c0.1-1.2,0-2.2,0-3.4c0-1.8,0.2-3.6,0.8-5.3l0.3-1L22,24z
			 M18,34c-0.6,1-1.8,1.2-2.7,0.5c-0.8-0.5-1.1-1.8-0.5-2.6c0.6-1,1.9-1.2,2.7-0.6C18.5,31.9,18.7,33.2,18,34z"/>
		<path class="st0" d="M32.6,24.5c-1-0.1-1.9,0-2.9,0c-1.5,0.1-3,0-4.4-0.3c-0.6-0.1-1.3-0.3-1.9-0.5l-0.8-0.3l0.6,0.7
			c1.3,1.3,2.2,2.9,3,4.5c0.4,1.1,0.8,2.1,1.3,3.1c0.5,1,1.1,1.8,2.1,2.4c0.2,0.1,0.5,0.3,0.8,0.4c2.9,1.1,6-0.5,6.9-3.6
			C38,27.7,35.6,24.8,32.6,24.5z M33.8,30.7c-0.6,1-1.8,1.3-2.7,0.6c-1-0.6-1.2-1.9-0.6-2.7c0.5-0.8,1.8-1.2,2.7-0.5
			C34.1,28.6,34.3,29.9,33.8,30.7z"/>
	</g>
	<path class="st0" d="M40.5,19c0-2.7,2.3-5.1,5.6-5.1c3.4,0,5.6,2.3,5.6,5.1v4.9c0,1.2-1,2.1-2.1,2.1h-1v-6.4c0-1.9-1.1-3-2.5-3
		s-2.5,1.1-2.5,3v4.3c0,1.2-1,2.1-2.1,2.1h-1C40.5,26,40.5,19,40.5,19z"/>
	<path class="st0" d="M64.2,24.5c-1.2,1-2.7,1.6-4.4,1.6c-3.7,0-6.5-2.6-6.5-6s2.6-6,6.3-6s6,2.6,6,6v0.8h-9.3
		c0.4,1.6,1.9,2.6,3.6,2.6c0.5,0,1-0.1,1.5-0.3c0.8-0.3,1.8-0.1,2.4,0.5L64.2,24.5z M62.3,18.4c-0.4-1.1-1.5-1.9-2.9-1.9
		s-2.4,0.7-3.1,1.9H62.3z"/>
	<path class="st0" d="M80.9,19.2c0-2.9,2.2-5.3,5.7-5.3v2.9c-1.5,0-2.6,1-2.6,2.9v4.2c0,1.2-1,2.2-2.1,2.2h-1V19.2z"/>
	<path class="st0" d="M88.2,9.2h1c1.2,0,2.1,1,2.1,2.1v3.9c0.6-0.6,1.8-1.3,3.3-1.3c3.3,0,5.9,2.7,5.9,6.1s-2.7,6.1-6.1,6.1
		c-3.4,0-6-2.9-6-6.2V9.2H88.2z M94.2,23.2c1.7,0,3.1-1.4,3.1-3.1c0-1.7-1.4-3.1-3.1-3.1c-1.7,0-3.1,1.4-3.1,3.1
		C91.1,21.9,92.5,23.2,94.2,23.2z"/>
	<path class="st0" d="M101.8,13.9h1c1.2,0,2.1,1,2.1,2.1v4.4c0,1.9,1.1,3,2.5,3c1.5,0,2.5-1.1,2.5-3v-6.5h1c1.2,0,2.1,1,2.1,2.1v4.9
		c0,2.7-2.3,5.1-5.6,5.1c-3.4,0-5.6-2.3-5.6-5.1V13.9z"/>
	<path class="st0" d="M76,15c-0.8-0.6-1.9-1.1-3.1-1.1c-3.4,0-5.9,2.7-5.9,6.1s2.5,6,5.9,6c1.3,0,2.4-0.5,3.3-1.3v1.3h3.2V15.3
		c-0.4,0.3-1,0.4-1.5,0.4C77.2,15.7,76.6,15.4,76,15z M73.2,23.2c-1.7,0-3.2-1.4-3.2-3.1c0-1.7,1.4-3.1,3.2-3.1
		c1.7,0,3.2,1.4,3.2,3.1C76.4,21.9,75,23.2,73.2,23.2z"/>
	<path class="st0" d="M122.7,13.9v6.5c0,1.9-1.1,3-2.5,3c-1.5,0-2.5-1.1-2.5-3v-4.3c0-1.2-1-2.2-2.1-2.2h-1v7c0,2.7,2.3,5.1,5.6,5.1
		c1,0,2.1-0.5,2.5-1.2v0.5c0,1.5-1,2.7-2.2,3.2c-0.7,0.2-1.2,1-1.2,1.7v1.2l0,0c3.9,0,6.5-2.6,6.5-6.1v-9.2c0-1.2-1-2.2-2.1-2.2
		h-1.1V13.9z"/>
</g>
</svg>
